HIERARCHY
ROOT Root
{
  OFFSET 0.0 0.0 0.0
  CHANNELS 6 Xposition Yposition Zposition Zrotation Yrotation Xrotation
  JOINT Hips
  {
    OFFSET 0.0 100.0 0.0
    CHANNELS 6 Xposition Yposition Zposition Zrotation Yrotation Xrotation
    JOINT Spine1
    {
      OFFSET 5.003913 -0.037094 -0.013727
      CHANNELS 3 Zrotation Yrotation Xrotation
      JOINT Spine2
      {
        OFFSET 7.125363 -1e-06 0.0
        CHANNELS 3 Zrotation Yrotation Xrotation
        JOINT Chest
        {
          OFFSET 7.594027 1e-06 0.0
          CHANNELS 3 Zrotation Yrotation Xrotation
          JOINT Neck1
          {
            OFFSET 26.313086 -0.460272 -0.181672
            CHANNELS 3 Zrotation Yrotation Xrotation
            JOINT Neck2
            {
              OFFSET 8.04591 0.0 0.0
              CHANNELS 3 Zrotation Yrotation Xrotation
              JOINT Head
              {
                OFFSET 6.432777 0.0 0.0
                CHANNELS 3 Zrotation Yrotation Xrotation
                JOINT HeadEnd
                {
                  OFFSET 16.169769 0.06451 0.00362
                  CHANNELS 3 Zrotation Yrotation Xrotation
                }
                JOINT Jaw
                {
                  OFFSET 0.108738 3.12938 0.002639
                  CHANNELS 3 Zrotation Yrotation Xrotation
                }
                JOINT LeftEye
                {
                  OFFSET 4.451729 8.166359 3.206392
                  CHANNELS 3 Zrotation Yrotation Xrotation
                }
                JOINT RightEye
                {
                  OFFSET 4.43689 8.135758 -3.222429
                  CHANNELS 3 Zrotation Yrotation Xrotation
                }
              }
            }
          }
          JOINT LeftShoulder
          {
            OFFSET 23.218927 5.195579 1.621656
            CHANNELS 3 Zrotation Yrotation Xrotation
            JOINT LeftArm
            {
              OFFSET 15.902122 2e-06 -2e-06
              CHANNELS 3 Zrotation Yrotation Xrotation
              JOINT LeftForeArm
              {
                OFFSET 28.739304 0.0 -1e-06
                CHANNELS 3 Zrotation Yrotation Xrotation
                JOINT LeftHand
                {
                  OFFSET 27.093979 -4e-06 0.0
                  CHANNELS 3 Zrotation Yrotation Xrotation
                  JOINT LeftHandThumb1
                  {
                    OFFSET 2.276787 3.380274 0.83384
                    CHANNELS 3 Zrotation Yrotation Xrotation
                    JOINT LeftHandThumb2
                    {
                      OFFSET 4.705307 -2e-06 -1e-06
                      CHANNELS 3 Zrotation Yrotation Xrotation
                      JOINT LeftHandThumb3
                      {
                        OFFSET 2.798515 0.0 3e-06
                        CHANNELS 3 Zrotation Yrotation Xrotation
                        JOINT LeftHandThumbEnd
                        {
                          OFFSET 3.180786 5e-06 -4e-06
                          CHANNELS 3 Zrotation Yrotation Xrotation
                        }
                      }
                    }
                  }
                  JOINT LeftHandIndex1
                  {
                    OFFSET 3.24778 2.352677 0.137192
                    CHANNELS 3 Zrotation Yrotation Xrotation
                    JOINT LeftHandIndex2
                    {
                      OFFSET 6.367104 1e-06 0.0
                      CHANNELS 3 Zrotation Yrotation Xrotation
                      JOINT LeftHandIndex3
                      {
                        OFFSET 3.662361 0.0 0.0
                        CHANNELS 3 Zrotation Yrotation Xrotation
                        JOINT LeftHandIndex4
                        {
                          OFFSET 2.329239 4e-06 -4e-06
                          CHANNELS 3 Zrotation Yrotation Xrotation
                          JOINT LeftHandIndexEnd
                          {
                            OFFSET 2.767822 0.0 0.0
                            CHANNELS 3 Zrotation Yrotation Xrotation
                          }
                        }
                      }
                    }
                  }
                  JOINT LeftHandMiddle1
                  {
                    OFFSET 3.163612 0.945023 -0.406112
                    CHANNELS 3 Zrotation Yrotation Xrotation
                    JOINT LeftHandMiddle2
                    {
                      OFFSET 6.276794 3e-06 0.0
                      CHANNELS 3 Zrotation Yrotation Xrotation
                      JOINT LeftHandMiddle3
                      {
                        OFFSET 4.356522 -1e-06 4e-06
                        CHANNELS 3 Zrotation Yrotation Xrotation
                        JOINT LeftHandMiddle4
                        {
                          OFFSET 2.996872 0.0 8e-06
                          CHANNELS 3 Zrotation Yrotation Xrotation
                          JOINT LeftHandMiddleEnd
                          {
                            OFFSET 2.323257 3e-06 -4e-06
                            CHANNELS 3 Zrotation Yrotation Xrotation
                          }
                        }
                      }
                    }
                  }
                  JOINT LeftHandRing1
                  {
                    OFFSET 2.882607 -0.309162 0.107445
                    CHANNELS 3 Zrotation Yrotation Xrotation
                    JOINT LeftHandRing2
                    {
                      OFFSET 6.033195 0.0 4e-06
                      CHANNELS 3 Zrotation Yrotation Xrotation
                      JOINT LeftHandRing3
                      {
                        OFFSET 4.350578 3e-06 0.0
                        CHANNELS 3 Zrotation Yrotation Xrotation
                        JOINT LeftHandRing4
                        {
                          OFFSET 2.651321 1e-06 -7e-06
                          CHANNELS 3 Zrotation Yrotation Xrotation
                          JOINT LeftHandRingEnd
                          {
                            OFFSET 1.937668 1e-06 -4e-06
                            CHANNELS 3 Zrotation Yrotation Xrotation
                          }
                        }
                      }
                    }
                  }
                  JOINT LeftHandPinky1
                  {
                    OFFSET 2.865311 -1.525436 0.575687
                    CHANNELS 3 Zrotation Yrotation Xrotation
                    JOINT LeftHandPinky2
                    {
                      OFFSET 5.549362 1e-06 -8e-06
                      CHANNELS 3 Zrotation Yrotation Xrotation
                      JOINT LeftHandPinky3
                      {
                        OFFSET 3.070969 0.0 -4e-06
                        CHANNELS 3 Zrotation Yrotation Xrotation
                        JOINT LeftHandPinky4
                        {
                          OFFSET 1.549675 1e-06 0.0
                          CHANNELS 3 Zrotation Yrotation Xrotation
                          JOINT LeftHandPinkyEnd
                          {
                            OFFSET 1.952118 0.0 0.0
                            CHANNELS 3 Zrotation Yrotation Xrotation
                          }
                        }
                      }
                    }
                  }
                }
              }
            }
          }
          JOINT RightShoulder
          {
            OFFSET 23.161718 5.296122 -1.380114
            CHANNELS 3 Zrotation Yrotation Xrotation
            JOINT RightArm
            {
              OFFSET -16.027195 -2e-06 1.1e-05
              CHANNELS 3 Zrotation Yrotation Xrotation
              JOINT RightForeArm
              {
                OFFSET -28.736641 4e-06 2e-06
                CHANNELS 3 Zrotation Yrotation Xrotation
                JOINT RightHand
                {
                  OFFSET -27.133617 6e-06 0.0
                  CHANNELS 3 Zrotation Yrotation Xrotation
                  JOINT RightHandThumb1
                  {
                    OFFSET -2.274328 -3.351035 -0.83067
                    CHANNELS 3 Zrotation Yrotation Xrotation
                    JOINT RightHandThumb2
                    {
                      OFFSET -4.703592 -3e-06 2e-06
                      CHANNELS 3 Zrotation Yrotation Xrotation
                      JOINT RightHandThumb3
                      {
                        OFFSET -2.794937 -4e-06 -3e-06
                        CHANNELS 3 Zrotation Yrotation Xrotation
                        JOINT RightHandThumbEnd
                        {
                          OFFSET -3.183853 4e-06 1e-06
                          CHANNELS 3 Zrotation Yrotation Xrotation
                        }
                      }
                    }
                  }
                  JOINT RightHandIndex1
                  {
                    OFFSET -3.253498 -2.33755 -0.127667
                    CHANNELS 3 Zrotation Yrotation Xrotation
                    JOINT RightHandIndex2
                    {
                      OFFSET -6.344433 0.0 0.0
                      CHANNELS 3 Zrotation Yrotation Xrotation
                      JOINT RightHandIndex3
                      {
                        OFFSET -3.654869 0.0 -8e-06
                        CHANNELS 3 Zrotation Yrotation Xrotation
                        JOINT RightHandIndex4
                        {
                          OFFSET -2.327587 -1e-06 0.0
                          CHANNELS 3 Zrotation Yrotation Xrotation
                          JOINT RightHandIndexEnd
                          {
                            OFFSET -2.770004 3e-06 8e-06
                            CHANNELS 3 Zrotation Yrotation Xrotation
                          }
                        }
                      }
                    }
                  }
                  JOINT RightHandMiddle1
                  {
                    OFFSET -3.168224 -0.944764 0.411762
                    CHANNELS 3 Zrotation Yrotation Xrotation
                    JOINT RightHandMiddle2
                    {
                      OFFSET -6.266689 -1e-06 -4e-06
                      CHANNELS 3 Zrotation Yrotation Xrotation
                      JOINT RightHandMiddle3
                      {
                        OFFSET -4.348904 0.0 0.0
                        CHANNELS 3 Zrotation Yrotation Xrotation
                        JOINT RightHandMiddle4
                        {
                          OFFSET -3.000237 2e-06 -4e-06
                          CHANNELS 3 Zrotation Yrotation Xrotation
                          JOINT RightHandMiddleEnd
                          {
                            OFFSET -2.32148 -4e-06 -4e-06
                            CHANNELS 3 Zrotation Yrotation Xrotation
                          }
                        }
                      }
                    }
                  }
                  JOINT RightHandRing1
                  {
                    OFFSET -2.885654 0.293261 -0.119232
                    CHANNELS 3 Zrotation Yrotation Xrotation
                    JOINT RightHandRing2
                    {
                      OFFSET -6.032833 -1e-06 -4e-06
                      CHANNELS 3 Zrotation Yrotation Xrotation
                      JOINT RightHandRing3
                      {
                        OFFSET -4.33881 0.0 -4e-06
                        CHANNELS 3 Zrotation Yrotation Xrotation
                        JOINT RightHandRing4
                        {
                          OFFSET -2.654903 -4e-06 -4e-06
                          CHANNELS 3 Zrotation Yrotation Xrotation
                          JOINT RightHandRingEnd
                          {
                            OFFSET -1.935123 0.0 4e-06
                            CHANNELS 3 Zrotation Yrotation Xrotation
                          }
                        }
                      }
                    }
                  }
                  JOINT RightHandPinky1
                  {
                    OFFSET -2.866241 1.503903 -0.60527
                    CHANNELS 3 Zrotation Yrotation Xrotation
                    JOINT RightHandPinky2
                    {
                      OFFSET -5.553177 -1e-06 0.0
                      CHANNELS 3 Zrotation Yrotation Xrotation
                      JOINT RightHandPinky3
                      {
                        OFFSET -3.062664 -1e-06 -4e-06
                        CHANNELS 3 Zrotation Yrotation Xrotation
                        JOINT RightHandPinky4
                        {
                          OFFSET -1.546532 2e-06 4e-06
                          CHANNELS 3 Zrotation Yrotation Xrotation
                          JOINT RightHandPinkyEnd
                          {
                            OFFSET -1.952339 0.0 -4e-06
                            CHANNELS 3 Zrotation Yrotation Xrotation
                          }
                        }
                      }
                    }
                  }
                }
              }
            }
          }
        }
      }
    }
    JOINT LeftLeg
    {
      OFFSET -8.443107 2.567604 10.043214
      CHANNELS 3 Zrotation Yrotation Xrotation
      JOINT LeftShin
      {
        OFFSET 43.229202 1e-06 -1e-06
        CHANNELS 3 Zrotation Yrotation Xrotation
        JOINT LeftFoot
        {
          OFFSET 42.298607 1e-06 1e-06
          CHANNELS 3 Zrotation Yrotation Xrotation
          JOINT LeftToeBase
          {
            OFFSET 14.165863 1e-06 0.0
            CHANNELS 3 Zrotation Yrotation Xrotation
            JOINT LeftToeEnd
            {
              OFFSET 6.714096 -0.234461 0.0
              CHANNELS 3 Zrotation Yrotation Xrotation
            }
          }
        }
      }
    }
    JOINT RightLeg
    {
      OFFSET -8.303924 2.592729 -10.047277
      CHANNELS 3 Zrotation Yrotation Xrotation
      JOINT RightShin
      {
        OFFSET -43.369686 0.0 0.0
        CHANNELS 3 Zrotation Yrotation Xrotation
        JOINT RightFoot
        {
          OFFSET -42.260784 4e-06 3e-06
          CHANNELS 3 Zrotation Yrotation Xrotation
          JOINT RightToeBase
          {
            OFFSET -14.222237 -2e-06 -2e-06
            CHANNELS 3 Zrotation Yrotation Xrotation
            JOINT RightToeEnd
            {
              OFFSET -6.660072 0.232574 -1e-06
              CHANNELS 3 Zrotation Yrotation Xrotation
            }
          }
        }
      }
    }
  }
}
MOTION
Frames: 5
Frame Time: 0.03333333333333333
0.0 0.0 0.0 0.0 -0.0 0.0 2.797275 94.471016 -2.111732 94.004059 -4.173368 89.521225 -3.531253 -4.341659 0.007511 -11.883306 -1.181505 0.462458 14.031761 -1.374843 -1.558737 16.338047 5.336605 1.870229 -2.736629 -1.112862 -5.479496 -31.744417 -2.33223 -6.371341 4e-06 0.0 -1e-06 -0.093398 -0.00339 -0.103934 -0.184028 -0.004276 -0.091791 -0.139123 -0.007415 -0.114085 -55.987759 -70.940147 64.075256 -7.772294 -12.383012 -6.163013 13.143032 -0.469387 -0.46199 -15.411499 2.649744 -8.855128 17.636566 -26.32263 52.411156 -19.46665 -14.395566 29.410406 -8e-06 -8.774816 -1e-06 16.64048 -18.929123 5.696031 -0.609775 -1.795651 -3.889325 -4.807077 -11.046786 -2.937862 2.5e-05 -20.975996 -2.6e-05 -5.019917 -25.033585 -4.031926 6e-06 1e-06 -3e-06 -10.634506 -5.686957 -3.565591 10.573262 -17.922913 -3.113913 1.5e-05 -13.821195 -1e-05 -0.501711 -31.181549 -4.027057 -11.397668 -58.750057 6.913488 -13.982679 -7.150181 -2.875047 13.772706 -8.401483 -3.218246 0.347776 -34.211533 0.771624 -0.963016 -17.733412 2.621033 1e-06 0.0 -1e-06 -17.346361 -20.095167 -4.201801 21.757517 -1.638379 3.866421 5e-06 -6.338818 -2e-06 -1.697547 -22.591772 -6.194052 -1e-06 -3e-06 -2e-06 100.832634 -75.3881 86.275658 -1.388995 -7.545127 -23.222027 15.146462 -0.100299 -0.388247 -3.482072 7.049904 -5.59617 22.182011 -20.37583 49.933243 -16.701742 -16.743452 28.476473 -7e-06 -12.690538 6e-06 14.865335 -17.28129 3.115257 -0.105921 -1.513849 -4.27587 -5.039018 -5.612849 -2.953553 8e-06 -11.020481 -1e-05 -6.111249 -15.895289 -3.840481 0.0 -0.0 2e-06 -10.283329 -5.680267 -4.341833 11.02824 -11.302356 -2.372627 -1.384251 -14.238525 -6.320117 -0.625399 -26.924118 -3.827615 -4.669874 -49.348194 -3.577585 -13.708467 -7.36345 -3.720937 18.14106 -14.052678 -3.242665 1.1e-05 -18.787195 -2e-06 -0.429712 -8.456022 2.555505 -1e-06 1e-06 0.0 -15.923461 -20.094402 -5.473588 30.419064 -7.190792 1.735913 2e-06 -8.162893 4e-06 -1.861873 -22.861399 -6.167931 -0.0 -1e-06 1e-06 -179.800385 -15.179389 -11.38292 6.787117 -0.004795 0.554596 -76.815895 1.425838 -23.961184 -4.473462 1.291399 2.116051 -1.000001 1e-06 -0.0 -3.676118 -28.542179 -20.928061 6.869267 0.130438 -0.083108 -69.050446 8.893574 -22.419765 -3.708101 0.797199 1.669508 -1.000008 1e-06 0.0 
0.0 0.0 0.0 0.0 -0.0 0.0 2.778413 94.497543 -2.236932 94.092522 -4.130195 89.418304 -3.56598 -4.37757 -0.000542 -11.90468 -1.176026 0.468216 14.042946 -1.394642 -1.565841 16.281956 5.492239 1.811967 -2.716693 -1.151849 -5.34594 -31.523737 -2.442939 -6.368758 6e-06 -0.0 -0.0 -0.121577 -0.006895 -0.100203 -0.168369 -0.013401 -0.091674 -0.131449 -0.005244 -0.109454 -55.585831 -70.95768 63.728222 -7.595531 -12.691098 -6.666121 12.949441 -0.479824 -0.420633 -15.649485 3.07327 -8.510618 17.63656 -26.3225 52.411137 -19.466724 -14.395539 29.410429 -1.4e-05 -8.774808 -3e-06 16.605087 -18.949741 5.755425 -0.609774 -1.795657 -3.889326 -4.807069 -11.046785 -2.937884 6.2e-05 -20.975981 -8.8e-05 -5.019836 -25.03356 -4.031995 7e-06 3e-06 -1e-06 -10.634506 -5.686962 -3.565596 10.573279 -17.922918 -3.113955 4e-05 -13.821184 -4.5e-05 -0.5016 -31.181522 -4.027142 -11.581653 -58.860168 7.098084 -13.982678 -7.150185 -2.875056 13.772709 -8.401489 -3.21826 0.347864 -34.211483 0.771509 -0.962956 -17.73337 2.620986 1e-06 0.0 -2e-06 -17.346357 -20.095182 -4.201832 21.757513 -1.638386 3.866423 1.3e-05 -6.338807 -1.8e-05 -1.697482 -22.591743 -6.194117 -2e-06 -5e-06 -2e-06 101.144203 -75.314308 86.017052 -1.158092 -7.586346 -23.094631 15.048554 -0.128579 -0.338638 -3.591743 7.079802 -5.410438 22.182074 -20.37579 49.933121 -16.701782 -16.743481 28.476421 -2.1e-05 -12.690572 -4e-06 14.938134 -17.288622 3.093045 -0.105918 -1.513852 -4.275864 -5.039025 -5.612848 -2.953548 1.9e-05 -11.020502 -7e-06 -6.111266 -15.895326 -3.840473 -0.0 1e-06 1e-06 -10.283341 -5.68026 -4.341825 11.028279 -11.302376 -2.372627 -1.384246 -14.238545 -6.320109 -0.625389 -26.924185 -3.827591 -4.636707 -49.456921 -3.621076 -13.708488 -7.363439 -3.720932 18.141115 -14.052711 -3.242666 3.2e-05 -18.787226 -6e-06 -0.429698 -8.456046 2.555505 0.0 2e-06 0.0 -15.92348 -20.094395 -5.473576 30.419146 -7.190837 1.735924 1.4e-05 -8.162905 -1e-06 -1.861854 -22.861437 -6.167935 -1e-06 -3e-06 -0.0 -179.705475 -15.044832 -11.544169 6.629025 0.004176 0.556978 -76.695389 1.313725 -23.906361 -4.584378 1.310176 2.116063 -0.999995 1e-06 0.0 -3.659574 -28.606808 -20.725161 6.661473 0.109589 -0.116434 -68.925301 9.060865 -22.374083 -3.828482 0.778887 1.664611 -1.000005 1e-06 0.0 
0.0 0.0 0.0 0.0 -0.0 0.0 2.76129 94.498184 -2.371867 94.175613 -4.140125 89.305351 -3.637881 -4.41905 -0.006532 -11.917604 -1.197859 0.43242 14.060115 -1.363368 -1.57326 16.146851 5.617639 1.804857 -2.746491 -1.169394 -5.276158 -31.240046 -2.535624 -6.315446 7e-06 0.0 -0.0 -0.133804 -0.00529 -0.092719 -0.161209 -0.018943 -0.081634 -0.121913 0.003029 -0.106625 -55.122417 -71.045975 63.291363 -7.627329 -12.938762 -7.284987 12.892653 -0.490705 -0.429295 -15.812457 3.438375 -8.219478 17.6366 -26.32272 52.411461 -19.466782 -14.395606 29.410593 -1.3e-05 -8.774849 0.0 16.496504 -18.947144 5.825153 -0.609776 -1.795661 -3.889345 -4.80709 -11.046835 -2.937894 4.6e-05 -20.976099 -5.6e-05 -5.019896 -25.033722 -4.03198 7e-06 2e-06 -2e-06 -10.634539 -5.686983 -3.565615 10.573312 -17.922995 -3.113952 2.8e-05 -13.821261 -2.6e-05 -0.501657 -31.181726 -4.027122 -11.570583 -58.859451 7.100863 -13.982722 -7.150212 -2.875073 13.772752 -8.401521 -3.218271 0.34782 -34.211689 0.771574 -0.962997 -17.733475 2.621029 -0.0 -2e-06 -2e-06 -17.346415 -20.095255 -4.20185 21.757589 -1.638388 3.866439 1e-05 -6.338841 -9e-06 -1.697513 -22.591879 -6.194125 -1e-06 -4e-06 -1e-06 101.558319 -75.296974 85.603569 -0.952157 -7.655461 -22.792788 14.945347 -0.053946 -0.269813 -3.620321 7.081906 -5.622565 22.18211 -20.375919 49.933414 -16.701832 -16.743546 28.476595 -1.3e-05 -12.690623 5e-06 15.002851 -17.300716 3.064698 -0.105921 -1.513854 -4.275887 -5.039041 -5.612869 -2.953565 1.2e-05 -11.020536 -8e-06 -6.111291 -15.895384 -3.840507 0.0 -0.0 1e-06 -10.283369 -5.680284 -4.341847 11.028301 -11.302404 -2.37264 -1.384257 -14.238595 -6.320149 -0.625401 -26.924282 -3.827626 -4.579624 -49.535595 -3.688115 -13.708521 -7.363469 -3.720952 18.141163 -14.052742 -3.242681 1.6e-05 -18.787294 1e-06 -0.429712 -8.45607 2.555525 -1e-06 -1e-06 1e-06 -15.923521 -20.094467 -5.473608 30.419224 -7.190834 1.735919 5e-06 -8.162935 5e-06 -1.861886 -22.861538 -6.167959 -0.0 -1e-06 -0.0 -179.669128 -14.933131 -11.649505 6.47172 0.006635 0.533233 -76.564522 1.25559 -23.855463 -4.650831 1.31496 2.118253 -1.000002 1e-06 0.0 -3.706663 -28.675508 -20.611439 6.478245 0.097211 -0.120244 -68.841438 9.23501 -22.377052 -3.911334 0.77562 1.663171 -1.000003 -0.0 1e-06 
0.0 0.0 0.0 0.0 -0.0 0.0 2.749575 94.493141 -2.441809 94.221825 -4.167442 89.191124 -3.691141 -4.459694 -0.024878 -11.93723 -1.219942 0.393164 14.075884 -1.298738 -1.557897 15.964526 5.676918 1.788184 -2.769668 -1.16617 -5.196164 -31.0275 -2.612742 -6.245843 7e-06 0.0 -0.0 -0.135967 -0.002395 -0.080719 -0.161056 -0.019462 -0.06744 -0.119016 0.008877 -0.098323 -54.749409 -71.12027 62.915394 -7.677665 -13.061646 -7.897448 12.965034 -0.514989 -0.468058 -15.851756 3.779869 -7.905972 17.636728 -26.322618 52.410778 -19.466497 -14.395606 29.410126 -3e-06 -8.774822 -1.9e-05 16.372009 -18.94043 5.873864 -0.609775 -1.795636 -3.8893 -4.807078 -11.046716 -2.937812 2e-05 -20.975859 4.9e-05 -5.019972 -25.033348 -4.031819 5e-06 1e-06 -3e-06 -10.634522 -5.686917 -3.565557 10.573273 -17.922827 -3.113837 1.1e-05 -13.821113 3.9e-05 -0.50182 -31.181282 -4.026879 -11.467195 -58.797329 6.987066 -13.982699 -7.150131 -2.875015 13.772721 -8.401441 -3.218197 0.347736 -34.211281 0.771754 -0.963036 -17.733269 2.621078 0.0 0.0 0.0 -17.346399 -20.095043 -4.201733 21.757555 -1.638402 3.866436 8e-06 -6.338784 1.9e-05 -1.697602 -22.591589 -6.193914 -2e-06 -7e-06 -3e-06 101.934692 -75.270409 85.168365 -0.736997 -7.756574 -22.468172 14.780723 0.088635 -0.216124 -3.585946 7.038231 -5.733298 22.182106 -20.375675 49.932747 -16.701767 -16.743477 28.476244 -2.4e-05 -12.690577 -1.2e-05 15.042741 -17.348192 3.032739 -0.105913 -1.513849 -4.275846 -5.039021 -5.612837 -2.953524 2.7e-05 -11.020479 -1e-06 -6.111259 -15.895266 -3.840436 -0.0 0.0 1e-06 -10.283344 -5.680245 -4.341787 11.028289 -11.30237 -2.372615 -1.384252 -14.238521 -6.320063 -0.625396 -26.924128 -3.827549 -4.574862 -49.592281 -3.759457 -13.708488 -7.363419 -3.720891 18.141132 -14.052702 -3.242648 4.7e-05 -18.787197 -3e-06 -0.429681 -8.456025 2.555492 0.0 3e-06 2e-06 -15.923489 -20.094353 -5.473509 30.419159 -7.190855 1.735929 2.2e-05 -8.162889 -6e-06 -1.861847 -22.861397 -6.167917 1e-06 -1e-06 -1e-06 -179.641922 -14.869588 -11.6909 6.308805 -0.000454 0.505007 -76.407318 1.137087 -23.842793 -4.708391 1.307718 2.114411 -0.999998 -0.0 0.0 -3.803102 -28.691238 -20.454264 6.3379 0.080774 -0.115286 -68.752579 9.32298 -22.362703 -4.004885 0.772234 1.659639 -1.0 2e-06 0.0 
0.0 0.0 0.0 0.0 -0.0 0.0 2.755065 94.483543 -2.44921 94.234299 -4.181391 89.070175 -3.700015 -4.494531 -0.036846 -11.943821 -1.238804 0.359702 14.075373 -1.225799 -1.544554 15.743045 5.696655 1.759952 -2.769766 -1.136913 -5.098001 -30.924147 -2.68689 -6.147017 5e-06 0.0 -0.0 -0.135889 0.000509 -0.067741 -0.158421 -0.014967 -0.054441 -0.116616 0.009898 -0.086869 -54.27063 -71.164658 62.460926 -7.734085 -13.140974 -8.690509 13.096087 -0.535975 -0.470574 -15.751163 4.171397 -7.667827 17.636599 -26.322638 52.411369 -19.466745 -14.395563 29.41054 -1.9e-05 -8.774826 -4e-06 16.282671 -18.912508 5.889131 -0.609778 -1.795657 -3.889336 -4.807069 -11.046799 -2.937895 6.7e-05 -20.976019 -6.8e-05 -5.019842 -25.033602 -4.031984 6e-06 3e-06 0.0 -10.634523 -5.686967 -3.565616 10.573296 -17.922935 -3.113948 4.3e-05 -13.821199 -3e-05 -0.501612 -31.181541 -4.027113 -11.36079 -58.730278 6.871831 -13.982697 -7.150192 -2.875076 13.772728 -8.401503 -3.218262 0.347862 -34.211525 0.771553 -0.962973 -17.733389 2.621024 0.0 0.0 0.0 -17.346371 -20.095203 -4.201859 21.757536 -1.638399 3.866437 1.6e-05 -6.338817 -1.1e-05 -1.697483 -22.591778 -6.194113 -1e-06 -5e-06 1e-06 102.451897 -75.268097 84.568932 -0.540518 -7.975201 -22.241215 14.555027 0.264822 -0.170718 -3.517036 7.053573 -5.831117 22.182055 -20.375946 49.933479 -16.701807 -16.743515 28.476627 -3e-05 -12.69057 1.4e-05 15.061418 -17.399874 3.021825 -0.10592 -1.513851 -4.275889 -5.039021 -5.612847 -2.953573 2.9e-05 -11.020497 -1.3e-05 -6.111224 -15.895307 -3.840516 -1e-06 0.0 3e-06 -10.28334 -5.680264 -4.341859 11.028281 -11.302382 -2.37264 -1.384222 -14.238539 -6.320149 -0.625347 -26.92416 -3.827618 -4.590478 -49.619781 -3.802788 -13.708487 -7.363444 -3.720963 18.141129 -14.052719 -3.24269 3.6e-05 -18.78723 1.2e-05 -0.429707 -8.456043 2.555532 -2e-06 1e-06 2e-06 -15.923459 -20.09441 -5.473635 30.419136 -7.190842 1.735894 1.1e-05 -8.16291 1.6e-05 -1.861857 -22.861443 -6.167909 -3e-06 -2e-06 1e-06 -179.58194 -14.852313 -11.689678 6.138729 -0.012913 0.491182 -76.266998 0.935669 -23.830328 -4.756466 1.303964 2.110363 -0.999995 0.0 0.0 -3.940308 -28.661314 -20.286814 6.295921 0.074406 -0.101527 -68.713173 9.36673 -22.347134 -4.069007 0.768931 1.655956 -1.000003 1e-06 1e-06 
